<svg id="Layer_1" data-name="Layer 1" xmlns="http://www.w3.org/2000/svg" viewBox="0 0 124.5 73"><defs><style>.cls-1{fill:#565651;}</style></defs><title>Mesa de trabajo 15</title><path class="cls-1" d="M13,27h.78q-2.08,4.72-5.35,4.72a2.81,2.81,0,0,1-2.2-1,3.81,3.81,0,0,1-.84-2.59,12.18,12.18,0,0,1,1.09-4.66A12.94,12.94,0,0,1,9.58,19c1.34-1.25,2.51-1.88,3.5-1.88a1.7,1.7,0,0,1,1.4.59A2.26,2.26,0,0,1,15,19.21a4.75,4.75,0,0,1-1.78,3.46,19,19,0,0,1-5.32,3.19,9,9,0,0,0-.46,2.75,2.62,2.62,0,0,0,.41,1.59A1.44,1.44,0,0,0,9,30.73q2.25,0,4-3.73M8.1,25a12.86,12.86,0,0,0,3.82-2.67,4.69,4.69,0,0,0,1.69-3.08,1.55,1.55,0,0,0-.25-.94,1,1,0,0,0-.77-.3c-.66,0-1.43.64-2.32,1.94A16,16,0,0,0,8.1,25"/><path class="cls-1" d="M24.74,27.59a4.1,4.1,0,0,1-1.17,2.83,4.46,4.46,0,0,1-3.46,1.3A3.72,3.72,0,0,1,17.57,31a2.18,2.18,0,0,1-.85-1.63,1.25,1.25,0,0,1,.26-.79.76.76,0,0,1,.65-.34c.59,0,.88.32.88.95a2.44,2.44,0,0,1-.1.61,1.06,1.06,0,0,0-.06.29.82.82,0,0,0,.51.69,2.43,2.43,0,0,0,1.21.29,3.13,3.13,0,0,0,2-.71,2.31,2.31,0,0,0,.9-1.95A8.48,8.48,0,0,0,21.72,25,9.73,9.73,0,0,1,20.24,21a3.48,3.48,0,0,1,1.24-2.69,4.22,4.22,0,0,1,2.85-1.1,3.38,3.38,0,0,1,2,.59,1.64,1.64,0,0,1,.82,1.29c0,.59-.24.88-.71.88s-.63-.33-.8-1a1.31,1.31,0,0,0-1.42-1.08,2.66,2.66,0,0,0-1.63.51,1.62,1.62,0,0,0-.69,1.35A7,7,0,0,0,23,22.89a21.28,21.28,0,0,1,1.39,2.75,5.42,5.42,0,0,1,.35,1.95"/><path class="cls-1" d="M37.93,17.62l-.23.73H35.23l-2.17,7.27A28.13,28.13,0,0,0,32,29.78a.91.91,0,0,0,.18.61.6.6,0,0,0,.5.21c.4,0,.91-.38,1.55-1.13a12,12,0,0,0,1.7-2.85h.73a11.72,11.72,0,0,1-2.29,3.79A3.58,3.58,0,0,1,32,31.72a1.62,1.62,0,0,1-1.33-.61,2.24,2.24,0,0,1-.5-1.51,22.11,22.11,0,0,1,1-4.16l2.11-7.09H31l.23-.73h2.25L35,12.57h2l-1.51,5.05Z"/><path class="cls-1" d="M51.57,27.82h.68q-1.38,3.9-3.77,3.9a1.55,1.55,0,0,1-1.21-.46,1.93,1.93,0,0,1-.4-1.35,15.32,15.32,0,0,1,.89-4c-1.92,3.89-3.81,5.85-5.69,5.85a2.08,2.08,0,0,1-1.62-.65,2.3,2.3,0,0,1-.6-1.62,11.74,11.74,0,0,1,.74-3.15l2-6a8.42,8.42,0,0,0,.45-1.6.38.38,0,0,0-.43-.43c-.69,0-1.45.94-2.27,2.81h-.79a8.32,8.32,0,0,1,1.73-2.85,3,3,0,0,1,2.1-1.11A1.48,1.48,0,0,1,45,18.78a9.34,9.34,0,0,1-.58,2.33L42.3,27.27a10.2,10.2,0,0,0-.59,2.36,1.2,1.2,0,0,0,.23.79.86.86,0,0,0,.67.26c1,0,2.11-1,3.44-3.11a38.32,38.32,0,0,0,3.81-9.25l.28-.95h2l-2.87,9.55a15.94,15.94,0,0,0-.69,2.82,1,1,0,0,0,.16.62.58.58,0,0,0,.49.21c.84,0,1.62-.92,2.37-2.75"/><path class="cls-1" d="M67.17,28.22H68a9.81,9.81,0,0,1-1.86,2.43A3.22,3.22,0,0,1,64,31.72a1.61,1.61,0,0,1-1.31-.54,2.44,2.44,0,0,1-.44-1.58,6.06,6.06,0,0,1,.07-.89c-1.55,2-3,3-4.31,3a2.44,2.44,0,0,1-1.91-.92,4,4,0,0,1-.78-2.65A12,12,0,0,1,56.67,23a11.82,11.82,0,0,1,3.25-4.3,5.86,5.86,0,0,1,3.37-1.52,2.25,2.25,0,0,1,1.26.35,2.42,2.42,0,0,1,.83,1.05l2-6.71a8.16,8.16,0,0,0,.36-1.45.65.65,0,0,0-.22-.56,2.18,2.18,0,0,0-1.09-.17H66l.21-.7A9.85,9.85,0,0,0,70,8.36h.42L65.13,25.89a23.28,23.28,0,0,0-1,3.83,1,1,0,0,0,.16.62.52.52,0,0,0,.45.21A1.64,1.64,0,0,0,65.86,30a8.87,8.87,0,0,0,1.31-1.75m-9.93.69a2.59,2.59,0,0,0,.32,1.42,1.09,1.09,0,0,0,.95.47,3.94,3.94,0,0,0,2.55-1.55,14.52,14.52,0,0,0,2.65-5.13,20.41,20.41,0,0,0,1.22-4.52,1.76,1.76,0,0,0-.41-1.12,1.33,1.33,0,0,0-1.08-.5,3.23,3.23,0,0,0-2.25,1.28,17,17,0,0,0-2.56,4.41,13.68,13.68,0,0,0-1.39,5.24"/><path class="cls-1" d="M77.28,27.6h.79a10.32,10.32,0,0,1-2,2.86,3.51,3.51,0,0,1-2.39,1.26,1.91,1.91,0,0,1-1.36-.56,2.16,2.16,0,0,1-.59-1.64,12.59,12.59,0,0,1,.92-3.38l1.9-5.08a10.49,10.49,0,0,0,.65-2.16.73.73,0,0,0-.15-.5.64.64,0,0,0-.48-.17c-.42,0-.92.34-1.51,1a7.44,7.44,0,0,0-1.24,1.82H71a9.54,9.54,0,0,1,2.06-2.86,3.34,3.34,0,0,1,2.16-1.05,1.64,1.64,0,0,1,1.27.54A2,2,0,0,1,77,19.08a11.46,11.46,0,0,1-.87,3.23l-1.58,4.33a12.4,12.4,0,0,0-.87,2.95,1.14,1.14,0,0,0,.19.72.65.65,0,0,0,.55.24c.81,0,1.77-1,2.86-2.95M76.06,9.82a1.41,1.41,0,0,1,.42-1,1.4,1.4,0,0,1,2,0,1.41,1.41,0,0,1,.42,1,1.44,1.44,0,0,1-.42,1,1.4,1.4,0,0,1-2,0,1.49,1.49,0,0,1-.41-1"/><path class="cls-1" d="M81.05,26.87A11.89,11.89,0,0,1,82,22.52a9.51,9.51,0,0,1,2.62-3.82,5.2,5.2,0,0,1,3.32-1.47,2.89,2.89,0,0,1,2.41,1.26,5.53,5.53,0,0,1,1,3.4,11.86,11.86,0,0,1-1,4.93,9.18,9.18,0,0,1-2.64,3.57,5.06,5.06,0,0,1-3.12,1.24,3.22,3.22,0,0,1-2.39-1.06,5.32,5.32,0,0,1-1-3.7m1.75,1.91a2.58,2.58,0,0,0,.46,1.54,1.49,1.49,0,0,0,1.27.63q2.2,0,3.62-4.23a22.17,22.17,0,0,0,1.42-6.46,2.83,2.83,0,0,0-.43-1.72A1.55,1.55,0,0,0,87.83,18c-1.37,0-2.55,1.3-3.54,3.92a19.86,19.86,0,0,0-1.49,6.89"/><path class="cls-1" d="M16.12,43.68h2l-2.93,9.75A14,14,0,0,0,14.53,56a.78.78,0,0,0,.15.51.53.53,0,0,0,.44.17c.76,0,1.63-.88,2.62-2.63h.68a8.73,8.73,0,0,1-1.83,2.73A3.28,3.28,0,0,1,14.4,58a1.37,1.37,0,0,1-1.18-.58A2.4,2.4,0,0,1,12.8,56a6.53,6.53,0,0,1,.33-1.78A10.33,10.33,0,0,1,11,56.73,4.09,4.09,0,0,1,8.35,58a2.51,2.51,0,0,1-2-1,4,4,0,0,1-.83-2.67,10.91,10.91,0,0,1,1.29-4.85,13,13,0,0,1,3.34-4.32,6,6,0,0,1,3.53-1.73,2.05,2.05,0,0,1,1.35.41,2.1,2.1,0,0,1,.66,1.25ZM7.53,54.83a3.29,3.29,0,0,0,.33,1.65,1.08,1.08,0,0,0,1,.56,4.06,4.06,0,0,0,2.6-1.61,13.65,13.65,0,0,0,2.64-5A17.93,17.93,0,0,0,15.2,46a2,2,0,0,0-.35-1.19,1.18,1.18,0,0,0-1-.49c-1.34,0-2.72,1.34-4.16,4s-2.15,4.86-2.15,6.55"/><path class="cls-1" d="M21.87,47.92h-.73a11.34,11.34,0,0,1,1.74-3.18,2.81,2.81,0,0,1,2.06-1.31A1.14,1.14,0,0,1,26,44a3.45,3.45,0,0,1,.34,1.74,16.74,16.74,0,0,1-.73,4.12c.06-.1.24-.5.54-1.19a21.86,21.86,0,0,1,2.13-4,2.49,2.49,0,0,1,1.84-1.23,1.22,1.22,0,0,1,.92.36,1.26,1.26,0,0,1,.35.88,1.19,1.19,0,0,1-.29.82.9.9,0,0,1-.68.32,1.25,1.25,0,0,1-.9-.55.51.51,0,0,0-.37-.22c-.54,0-1.39,1.33-2.53,4a70.69,70.69,0,0,0-2.76,7.53l-.36,1.2h-2L24.14,49a15.28,15.28,0,0,0,.73-3.43,1.52,1.52,0,0,0-.13-.72.38.38,0,0,0-.36-.23c-.36,0-.81.4-1.36,1.19a9.17,9.17,0,0,0-1.15,2.16"/><path class="cls-1" d="M34.57,47.92h-.72a11.58,11.58,0,0,1,1.73-3.18,2.81,2.81,0,0,1,2.06-1.31A1.16,1.16,0,0,1,38.7,44,3.45,3.45,0,0,1,39,45.74a16.86,16.86,0,0,1-.74,4.12,12.86,12.86,0,0,0,.55-1.19,21.86,21.86,0,0,1,2.13-4,2.46,2.46,0,0,1,1.84-1.23,1.22,1.22,0,0,1,.92.36,1.26,1.26,0,0,1,.35.88,1.19,1.19,0,0,1-.29.82.9.9,0,0,1-.68.32,1.28,1.28,0,0,1-.91-.55.48.48,0,0,0-.36-.22q-.83,0-2.53,4a70.69,70.69,0,0,0-2.76,7.53l-.36,1.2h-2L36.84,49a15.5,15.5,0,0,0,.74-3.43,1.67,1.67,0,0,0-.12-.72.42.42,0,0,0-.37-.23c-.36,0-.82.4-1.36,1.19a9.25,9.25,0,0,0-1.16,2.16"/><path class="cls-1" d="M55.69,43.68h2l-2.92,9.75A14,14,0,0,0,54.1,56a.78.78,0,0,0,.15.51.53.53,0,0,0,.44.17c.76,0,1.63-.88,2.61-2.63H58a8.91,8.91,0,0,1-1.83,2.73A3.3,3.3,0,0,1,54,58a1.39,1.39,0,0,1-1.19-.58A2.47,2.47,0,0,1,52.37,56a6.53,6.53,0,0,1,.33-1.78,10.55,10.55,0,0,1-2.14,2.54A4.12,4.12,0,0,1,47.92,58a2.5,2.5,0,0,1-2-1,4,4,0,0,1-.83-2.67,11,11,0,0,1,1.28-4.85,13.14,13.14,0,0,1,3.35-4.32,5.91,5.91,0,0,1,3.52-1.73,2,2,0,0,1,1.35.41,2.05,2.05,0,0,1,.67,1.25ZM47.1,54.83a3.29,3.29,0,0,0,.33,1.65,1.08,1.08,0,0,0,1,.56A4.09,4.09,0,0,0,51,55.43a13.65,13.65,0,0,0,2.64-5A17.93,17.93,0,0,0,54.77,46a2,2,0,0,0-.35-1.19,1.19,1.19,0,0,0-1-.49c-1.34,0-2.72,1.34-4.16,4s-2.15,4.86-2.15,6.55"/><path class="cls-1" d="M67,53.88h.78a10.26,10.26,0,0,1-2,2.86A3.49,3.49,0,0,1,63.37,58,1.89,1.89,0,0,1,62,57.43a2.16,2.16,0,0,1-.59-1.64,12.59,12.59,0,0,1,.92-3.38l1.9-5.08a10.31,10.31,0,0,0,.65-2.16.7.7,0,0,0-.16-.5.61.61,0,0,0-.47-.16c-.42,0-.93.33-1.52,1a8,8,0,0,0-1.24,1.82h-.78a9.48,9.48,0,0,1,2.06-2.85,3.3,3.3,0,0,1,2.16-1,1.65,1.65,0,0,1,1.27.53,2,2,0,0,1,.49,1.39,11.5,11.5,0,0,1-.87,3.24l-1.58,4.32a12.67,12.67,0,0,0-.87,3,1.13,1.13,0,0,0,.19.72.65.65,0,0,0,.55.24c.81,0,1.76-1,2.86-2.94m-1.22-17.8a1.42,1.42,0,0,1,.42-1,1.37,1.37,0,0,1,1-.42,1.38,1.38,0,0,1,1,.42,1.47,1.47,0,0,1,0,2.06,1.39,1.39,0,0,1-1,.43,1.34,1.34,0,0,1-1-.44,1.45,1.45,0,0,1-.41-1"/><path class="cls-1" d="M73.73,53.53A4,4,0,0,1,72.13,52a4.59,4.59,0,0,1-.54-2.29,6.34,6.34,0,0,1,1.71-4.34,5.13,5.13,0,0,1,3.86-1.9,3.71,3.71,0,0,1,1.26.22,3,3,0,0,1,1.06.66,3.23,3.23,0,0,1,1.82-.91,1.43,1.43,0,0,1,1,.34,1.11,1.11,0,0,1,.38.85q0,.81-.75.81a1.12,1.12,0,0,1-.84-.57c-.18-.24-.35-.36-.53-.36s-.38.13-.57.41a5.08,5.08,0,0,1,.65,2.61A6.15,6.15,0,0,1,79,52.05a6.92,6.92,0,0,1-4.07,2c-2.38.31-3.57.95-3.57,1.93a.9.9,0,0,0,.41.76,5,5,0,0,0,1.73.58c1.52.35,2.77.66,3.73.94a4.33,4.33,0,0,1,2.14,1.22,2.82,2.82,0,0,1,.7,1.91,3.7,3.7,0,0,1-1.71,3,8,8,0,0,1-4.86,1.27,9.17,9.17,0,0,1-4.63-1,2.86,2.86,0,0,1-1.66-2.45,2.43,2.43,0,0,1,.8-1.83,2.27,2.27,0,0,1,1.38-.73c.38,0,.58.14.58.43a1.22,1.22,0,0,1-.4.65,2.14,2.14,0,0,0-.67,1.43,2.37,2.37,0,0,0,1.09,1.91,5.43,5.43,0,0,0,3.31.83,6.6,6.6,0,0,0,3.64-.83,2.34,2.34,0,0,0,1.24-1.94,1.66,1.66,0,0,0-.87-1.44,15.23,15.23,0,0,0-3.78-1.23,7,7,0,0,1-3.13-1.25,1.92,1.92,0,0,1-.63-1.38,2.66,2.66,0,0,1,1-2,6,6,0,0,1,3-1.31m-.35-2.35a2.17,2.17,0,0,0,.52,1.5,1.68,1.68,0,0,0,1.29.56,2.18,2.18,0,0,0,1.62-.73,7.45,7.45,0,0,0,1.4-2.71,10.83,10.83,0,0,0,.68-3.38,3.08,3.08,0,0,0-.4-1.72,1.38,1.38,0,0,0-1.21-.58c-1,0-1.86.81-2.67,2.42a10.3,10.3,0,0,0-1.23,4.64"/><path class="cls-1" d="M84.35,53.15a11.9,11.9,0,0,1,.92-4.36A9.43,9.43,0,0,1,87.9,45a5.2,5.2,0,0,1,3.32-1.46,2.93,2.93,0,0,1,2.41,1.25,5.56,5.56,0,0,1,.94,3.41,11.82,11.82,0,0,1-1,4.92,9.11,9.11,0,0,1-2.64,3.57,5,5,0,0,1-3.11,1.24,3.18,3.18,0,0,1-2.39-1.07,5.21,5.21,0,0,1-1-3.68m1.76,1.91a2.52,2.52,0,0,0,.46,1.53,1.47,1.47,0,0,0,1.26.63c1.47,0,2.68-1.4,3.63-4.23a22.46,22.46,0,0,0,1.42-6.45,2.81,2.81,0,0,0-.44-1.72,1.53,1.53,0,0,0-1.31-.58q-2.05,0-3.54,3.92a19.82,19.82,0,0,0-1.48,6.9"/><rect class="cls-1" x="110.14" y="36.43" width="10.87" height="3.58"/></svg>