<svg id="Layer_1" data-name="Layer 1" xmlns="http://www.w3.org/2000/svg" viewBox="0 0 591 350.49"><defs><style>.cls-1{fill:#565651;}</style></defs><title>logo-central</title><path class="cls-1" d="M432.74,288.46h1.05q-2.79,6.23-7.17,6.22a3.78,3.78,0,0,1-2.94-1.26,5,5,0,0,1-1.13-3.42,16,16,0,0,1,1.46-6.16,17.22,17.22,0,0,1,4.16-5.92c1.8-1.66,3.36-2.49,4.7-2.49a2.28,2.28,0,0,1,1.87.78,3,3,0,0,1,.64,2,6.29,6.29,0,0,1-2.38,4.57,25.36,25.36,0,0,1-7.13,4.21,11.9,11.9,0,0,0-.61,3.63,3.37,3.37,0,0,0,.55,2.11,1.92,1.92,0,0,0,1.62.71c2,0,3.78-1.65,5.31-4.93m-6.54-2.64a17.42,17.42,0,0,0,5.11-3.52c1.51-1.5,2.26-2.85,2.26-4.07a1.92,1.92,0,0,0-.34-1.25,1.3,1.3,0,0,0-1-.4c-.88,0-1.92.85-3.11,2.56a21,21,0,0,0-2.9,6.68"/><path class="cls-1" d="M448.47,289.23A5.42,5.42,0,0,1,446.9,293a6,6,0,0,1-4.63,1.7,5,5,0,0,1-3.4-1,2.88,2.88,0,0,1-1.13-2.14,1.66,1.66,0,0,1,.34-1.06A1.07,1.07,0,0,1,439,290c.79,0,1.19.42,1.19,1.25a3.57,3.57,0,0,1-.14.82,1.07,1.07,0,0,0-.08.37,1.09,1.09,0,0,0,.68.92,3.3,3.3,0,0,0,1.63.38,4.25,4.25,0,0,0,2.68-.94,3.09,3.09,0,0,0,1.21-2.58,11.23,11.23,0,0,0-1.69-4.51c-1.33-2.38-2-4.11-2-5.21a4.54,4.54,0,0,1,1.67-3.57,5.66,5.66,0,0,1,3.8-1.45,4.53,4.53,0,0,1,2.67.79,2.17,2.17,0,0,1,1.12,1.7c0,.78-.33,1.17-1,1.17s-.84-.44-1.06-1.3a1.75,1.75,0,0,0-1.91-1.43,3.54,3.54,0,0,0-2.18.68,2.12,2.12,0,0,0-.92,1.78,9.27,9.27,0,0,0,1.47,4.11,27.42,27.42,0,0,1,1.86,3.63,7.4,7.4,0,0,1,.47,2.58"/><path class="cls-1" d="M466.12,276.05l-.3,1h-3.31l-2.9,9.61a35.52,35.52,0,0,0-1.45,5.5,1.23,1.23,0,0,0,.23.8.81.81,0,0,0,.67.28q.79,0,2.07-1.5a15.76,15.76,0,0,0,2.29-3.76h1a15.32,15.32,0,0,1-3.07,5,4.83,4.83,0,0,1-3.16,1.72,2.22,2.22,0,0,1-1.79-.79,3,3,0,0,1-.67-2,28.79,28.79,0,0,1,1.36-5.5L459.9,277h-3l.31-1h3l2-6.67h2.64l-2,6.67Z"/><path class="cls-1" d="M484.39,289.53h.92c-1.24,3.44-2.93,5.15-5.06,5.15a2.09,2.09,0,0,1-1.61-.59,2.58,2.58,0,0,1-.54-1.78,20,20,0,0,1,1.19-5.35q-3.85,7.73-7.61,7.72a2.79,2.79,0,0,1-2.18-.86,3,3,0,0,1-.79-2.13,15.17,15.17,0,0,1,1-4.16l2.7-7.9a10.88,10.88,0,0,0,.6-2.11.51.51,0,0,0-.58-.57q-1.38,0-3,3.72h-1.06a10.86,10.86,0,0,1,2.31-3.77,4.06,4.06,0,0,1,2.82-1.47,2.11,2.11,0,0,1,1.46.54,2.07,2.07,0,0,1,.61,1.62,12.8,12.8,0,0,1-.77,3.08L472,288.81a13.42,13.42,0,0,0-.79,3.12,1.52,1.52,0,0,0,.31,1,1.16,1.16,0,0,0,.9.35c1.29,0,2.83-1.37,4.6-4.11A49.59,49.59,0,0,0,482.1,277l.38-1.25h2.64l-3.85,12.63a21.09,21.09,0,0,0-.93,3.71,1.28,1.28,0,0,0,.23.83.78.78,0,0,0,.65.27q1.68,0,3.17-3.63"/><path class="cls-1" d="M505.27,290.06h1.08a12.58,12.58,0,0,1-2.49,3.21,4.3,4.3,0,0,1-2.77,1.41,2.15,2.15,0,0,1-1.75-.7,3.16,3.16,0,0,1-.6-2.09,6,6,0,0,1,.11-1.17q-3.12,4-5.78,4a3.28,3.28,0,0,1-2.56-1.21,5.17,5.17,0,0,1-1.05-3.5,15.82,15.82,0,0,1,1.76-6.85,15.45,15.45,0,0,1,4.35-5.67,7.9,7.9,0,0,1,4.51-2,3,3,0,0,1,1.69.47,3.09,3.09,0,0,1,1.1,1.38l2.69-8.86a10.86,10.86,0,0,0,.48-1.92.87.87,0,0,0-.29-.74,3,3,0,0,0-1.47-.22h-.61l.28-.93a13.45,13.45,0,0,0,5.09-.79h.55l-7,23.16a30.83,30.83,0,0,0-1.3,5.06,1.37,1.37,0,0,0,.21.83.72.72,0,0,0,.6.27,2.21,2.21,0,0,0,1.46-.77,11.43,11.43,0,0,0,1.75-2.31M492,291a3.28,3.28,0,0,0,.43,1.86,1.43,1.43,0,0,0,1.26.62c1,0,2.12-.68,3.41-2.06a19.18,19.18,0,0,0,3.57-6.77,26.56,26.56,0,0,0,1.62-6,2.2,2.2,0,0,0-.55-1.47,1.77,1.77,0,0,0-1.45-.67,4.32,4.32,0,0,0-3,1.69,21.88,21.88,0,0,0-3.43,5.83A17.75,17.75,0,0,0,492,291"/><path class="cls-1" d="M518.81,289.25h1.06a13.73,13.73,0,0,1-2.7,3.78,4.69,4.69,0,0,1-3.19,1.65,2.58,2.58,0,0,1-1.82-.74,2.83,2.83,0,0,1-.78-2.16,16.26,16.26,0,0,1,1.23-4.47l2.53-6.71a13,13,0,0,0,.88-2.86.93.93,0,0,0-.21-.66.86.86,0,0,0-.63-.22c-.57,0-1.25.45-2,1.34a9.74,9.74,0,0,0-1.66,2.4h-1.06a12.67,12.67,0,0,1,2.76-3.78,4.56,4.56,0,0,1,2.89-1.39,2.23,2.23,0,0,1,1.7.71,2.59,2.59,0,0,1,.66,1.85,15.06,15.06,0,0,1-1.17,4.26L515.16,288a16.2,16.2,0,0,0-1.16,3.9,1.5,1.5,0,0,0,.25.95.86.86,0,0,0,.73.32q1.63,0,3.83-3.89m-1.62-23.52a1.8,1.8,0,0,1,.56-1.35,1.91,1.91,0,0,1,2.7,0,1.8,1.8,0,0,1,.56,1.35,1.86,1.86,0,0,1-.56,1.37,1.88,1.88,0,0,1-2.71,0,1.9,1.9,0,0,1-.55-1.36"/><path class="cls-1" d="M523.86,288.28a15.72,15.72,0,0,1,1.23-5.75,12.4,12.4,0,0,1,3.52-5,7,7,0,0,1,4.44-1.93,3.86,3.86,0,0,1,3.22,1.66,7.17,7.17,0,0,1,1.27,4.49,15.51,15.51,0,0,1-1.41,6.52,12.17,12.17,0,0,1-3.53,4.71,6.78,6.78,0,0,1-4.16,1.64,4.36,4.36,0,0,1-3.21-1.41q-1.37-1.4-1.37-4.88m2.35,2.53a3.3,3.3,0,0,0,.62,2,2,2,0,0,0,1.69.84c2,0,3.58-1.86,4.85-5.59a29,29,0,0,0,1.9-8.53,3.72,3.72,0,0,0-.58-2.28,2.06,2.06,0,0,0-1.75-.76q-2.75,0-4.74,5.18a26.07,26.07,0,0,0-2,9.12"/><path class="cls-1" d="M436.94,310.49h2.64l-3.92,12.89a19.2,19.2,0,0,0-.86,3.39,1,1,0,0,0,.2.67.71.71,0,0,0,.59.23c1,0,2.18-1.16,3.5-3.47H440a11.67,11.67,0,0,1-2.46,3.59,4.4,4.4,0,0,1-2.93,1.62,1.85,1.85,0,0,1-1.59-.77,3.2,3.2,0,0,1-.55-1.89,8.73,8.73,0,0,1,.44-2.36,13.72,13.72,0,0,1-2.87,3.36,5.55,5.55,0,0,1-3.53,1.66,3.37,3.37,0,0,1-2.65-1.31,5.28,5.28,0,0,1-1.11-3.53,14.31,14.31,0,0,1,1.72-6.41,17.38,17.38,0,0,1,4.47-5.71c1.84-1.52,3.42-2.29,4.72-2.29a2.78,2.78,0,0,1,1.82.55,2.82,2.82,0,0,1,.89,1.65Zm-11.51,14.74a4.38,4.38,0,0,0,.44,2.19,1.44,1.44,0,0,0,1.32.73c1,0,2.13-.7,3.49-2.13a17.85,17.85,0,0,0,3.53-6.53,23.05,23.05,0,0,0,1.49-6,2.58,2.58,0,0,0-.47-1.57,1.56,1.56,0,0,0-1.35-.65c-1.79,0-3.64,1.77-5.57,5.31s-2.88,6.41-2.88,8.64"/><path class="cls-1" d="M444.62,316.1h-1a14.8,14.8,0,0,1,2.32-4.2,3.75,3.75,0,0,1,2.76-1.74,1.53,1.53,0,0,1,1.4.76,4.49,4.49,0,0,1,.47,2.3,21.58,21.58,0,0,1-1,5.45c.09-.14.34-.67.73-1.58a28.89,28.89,0,0,1,2.86-5.3,3.3,3.3,0,0,1,2.46-1.63,1.62,1.62,0,0,1,1.7,1.65,1.52,1.52,0,0,1-.39,1.08,1.19,1.19,0,0,1-.91.42,1.66,1.66,0,0,1-1.21-.73.65.65,0,0,0-.48-.28q-1.11,0-3.39,5.29a91.52,91.52,0,0,0-3.7,10l-.48,1.58h-2.64l3.5-11.65a20,20,0,0,0,1-4.53,2.06,2.06,0,0,0-.17-.95.52.52,0,0,0-.49-.31c-.49,0-1.09.52-1.82,1.56a12.81,12.81,0,0,0-1.55,2.86"/><path class="cls-1" d="M461.64,316.1h-1a15.05,15.05,0,0,1,2.32-4.2,3.77,3.77,0,0,1,2.76-1.74,1.53,1.53,0,0,1,1.4.76,4.49,4.49,0,0,1,.47,2.3,21.93,21.93,0,0,1-1,5.45c.09-.14.33-.67.72-1.58a28.89,28.89,0,0,1,2.86-5.3,3.31,3.31,0,0,1,2.47-1.63,1.62,1.62,0,0,1,1.69,1.65,1.56,1.56,0,0,1-.38,1.08,1.21,1.21,0,0,1-.92.42,1.67,1.67,0,0,1-1.21-.73.65.65,0,0,0-.48-.28q-1.1,0-3.39,5.29a93.47,93.47,0,0,0-3.69,10l-.49,1.58h-2.64l3.5-11.65a20,20,0,0,0,1-4.53,2.23,2.23,0,0,0-.16-.95.53.53,0,0,0-.5-.31c-.48,0-1.09.52-1.81,1.56a12,12,0,0,0-1.55,2.86"/><path class="cls-1" d="M489.91,310.49h2.64l-3.91,12.89a18.26,18.26,0,0,0-.86,3.39,1,1,0,0,0,.2.67.71.71,0,0,0,.59.23q1.51,0,3.5-3.47H493a11.64,11.64,0,0,1-2.45,3.59,4.4,4.4,0,0,1-2.94,1.62,1.83,1.83,0,0,1-1.58-.77,3.13,3.13,0,0,1-.55-1.89,8.36,8.36,0,0,1,.44-2.36,13.94,13.94,0,0,1-2.87,3.36,5.57,5.57,0,0,1-3.53,1.66,3.41,3.41,0,0,1-2.66-1.31,5.28,5.28,0,0,1-1.11-3.53,14.45,14.45,0,0,1,1.72-6.41,17.4,17.4,0,0,1,4.48-5.71c1.84-1.52,3.41-2.29,4.71-2.29a2.47,2.47,0,0,1,2.71,2.2Zm-11.5,14.74a4.27,4.27,0,0,0,.44,2.19,1.43,1.43,0,0,0,1.32.73c1,0,2.12-.7,3.48-2.13a17.56,17.56,0,0,0,3.53-6.53,23.21,23.21,0,0,0,1.5-6,2.65,2.65,0,0,0-.47-1.57,1.59,1.59,0,0,0-1.36-.65c-1.78,0-3.64,1.77-5.56,5.31s-2.88,6.41-2.88,8.64"/><path class="cls-1" d="M505,324h1.06a13.73,13.73,0,0,1-2.7,3.78,4.69,4.69,0,0,1-3.2,1.65,2.52,2.52,0,0,1-1.81-.74,2.83,2.83,0,0,1-.78-2.16,16.26,16.26,0,0,1,1.23-4.47l2.53-6.71a13.78,13.78,0,0,0,.88-2.86.93.93,0,0,0-.21-.66.82.82,0,0,0-.63-.22c-.57,0-1.25.44-2,1.33a9.77,9.77,0,0,0-1.66,2.41h-1.06a12.67,12.67,0,0,1,2.76-3.78,4.51,4.51,0,0,1,2.89-1.39,2.25,2.25,0,0,1,1.7.7,2.62,2.62,0,0,1,.66,1.85,15,15,0,0,1-1.17,4.27l-2.11,5.72a16.31,16.31,0,0,0-1.16,3.89,1.51,1.51,0,0,0,.25,1,.88.88,0,0,0,.73.32c1.09,0,2.36-1.3,3.83-3.89m-1.63-23.52a1.92,1.92,0,0,1,3.27-1.35,1.84,1.84,0,0,1,.56,1.35,1.92,1.92,0,0,1-.56,1.37,1.83,1.83,0,0,1-1.35.57,1.81,1.81,0,0,1-1.37-.59,1.94,1.94,0,0,1-.55-1.35"/><path class="cls-1" d="M514.06,323.52a5.39,5.39,0,0,1-2.14-2.06,6,6,0,0,1-.72-3,8.27,8.27,0,0,1,2.29-5.73,6.84,6.84,0,0,1,5.17-2.52,4.86,4.86,0,0,1,1.68.29,4.07,4.07,0,0,1,1.42.88,4.34,4.34,0,0,1,2.44-1.21,1.89,1.89,0,0,1,1.3.45,1.45,1.45,0,0,1,.51,1.13c0,.71-.34,1.06-1,1.06a1.49,1.49,0,0,1-1.12-.75.94.94,0,0,0-.7-.48c-.25,0-.51.18-.77.55a6.6,6.6,0,0,1,.88,3.45,8.08,8.08,0,0,1-2.22,6,9.37,9.37,0,0,1-5.46,2.62q-4.77.61-4.77,2.55a1.18,1.18,0,0,0,.55,1,7,7,0,0,0,2.31.77c2,.45,3.7.86,5,1.23a5.86,5.86,0,0,1,2.87,1.62,3.72,3.72,0,0,1,.94,2.52,4.85,4.85,0,0,1-2.29,3.93,10.8,10.8,0,0,1-6.51,1.7,12.38,12.38,0,0,1-6.2-1.3,3.76,3.76,0,0,1-2.23-3.23,3.11,3.11,0,0,1,1.08-2.41,3,3,0,0,1,1.85-1c.51,0,.77.19.77.57a1.58,1.58,0,0,1-.53.86,2.81,2.81,0,0,0-.9,1.89,3.14,3.14,0,0,0,1.45,2.53,7.38,7.38,0,0,0,4.45,1.1,8.91,8.91,0,0,0,4.87-1.1,3.12,3.12,0,0,0,1.66-2.57,2.18,2.18,0,0,0-1.17-1.9,20.11,20.11,0,0,0-5.06-1.62c-2.26-.53-3.66-1.08-4.2-1.66a2.51,2.51,0,0,1-.84-1.82,3.55,3.55,0,0,1,1.41-2.63,8.15,8.15,0,0,1,4-1.72m-.46-3.11a2.79,2.79,0,0,0,.69,2,2.26,2.26,0,0,0,1.73.75,3,3,0,0,0,2.17-1,10.09,10.09,0,0,0,1.87-3.58,14.26,14.26,0,0,0,.91-4.47,4,4,0,0,0-.54-2.28,1.87,1.87,0,0,0-1.62-.75c-1.29,0-2.48,1.06-3.57,3.2a13.45,13.45,0,0,0-1.64,6.12"/><path class="cls-1" d="M528.28,323a15.72,15.72,0,0,1,1.23-5.75,12.49,12.49,0,0,1,3.52-5.05,7,7,0,0,1,4.45-1.94,3.92,3.92,0,0,1,3.22,1.66,7.29,7.29,0,0,1,1.26,4.5,15.44,15.44,0,0,1-1.41,6.51,12.13,12.13,0,0,1-3.53,4.72,6.78,6.78,0,0,1-4.16,1.64,4.36,4.36,0,0,1-3.21-1.41c-.91-.94-1.37-2.56-1.37-4.88m2.35,2.53a3.3,3.3,0,0,0,.62,2,2,2,0,0,0,1.69.84c2,0,3.58-1.86,4.85-5.59a29.16,29.16,0,0,0,1.91-8.53,3.7,3.7,0,0,0-.59-2.28,2.06,2.06,0,0,0-1.75-.76q-2.75,0-4.74,5.18a25.84,25.84,0,0,0-2,9.12"/><rect class="cls-1" x="562.81" y="300.91" width="14.55" height="4.72"/><path class="cls-1" d="M427.59,149.38c.09-1.46.24-2.91.3-4.37a150.75,150.75,0,0,0-2.64-35.39c-.21-6.76-.51-12.77-.77-17.69l-.13-2.49c-2-38.65-32.79-51.93-68.44-67.31-6.65-2.88-13.53-5.84-20.38-9-22.38-10.5-53.24-9.94-75.17-7.64-11.14,1.18-21.14,2.9-28.66,4.41-30.47-2.37-63.33-3.69-89.13,7.39-17.38,5.82-24.32,25.29-28.47,46.5C87.07,93.65,60,139,77.19,190.54a151.5,151.5,0,0,0,31.22,59.62c8.82,21.71,22.07,40.26,38.87,53.92,30.53,24.83,69.44,32.62,113.44,39.59,8.34,1.32,17.43,2.76,26.59,2.76A69.26,69.26,0,0,0,301,345.16c13.58-2.73,25.26-9.91,38-18.31,16.87-11.1,33-22.34,44.82-37.82,12.53-16.38,19.19-36,26-58.18l.14-.47c11.1-11.59,20.6-24,26-37.63,6.69-13.41.83-28.54-8.41-43.37m-1.76-4.46c0,.52-.08,1-.11,1.55-.28-.42-.55-.85-.83-1.28.34-6.08.53-12,.58-17.53a156.53,156.53,0,0,1,.36,17.26m-18.15,85.92c-1.3,1.33-2.61,2.65-3.95,4a178.57,178.57,0,0,0,10.46-26.35l.25-.36c-2.07,7.36-4.29,14.74-6.57,22.16-.07.2-.13.39-.19.59M100.43,213.92c-5-30.47-2.51-64,7.44-102.38,2-7.84,3.4-17,4.84-26.69.06-.42.13-.85.19-1.28a224.56,224.56,0,0,1,29-30.94c12.56-10.05,29.4-18,48.3-23.26C176,37.37,162,47.18,147.49,57.73c-9.4,6.83-20.05,14.56-27.08,25.14s-9.93,22.78-12.77,36.52c-3.75,18.14-6.91,35.9-4.55,53.6,2.5,18.75,10.94,35.83,20.89,54.62,8,15.15,16.12,29.94,25.37,43.63-20.63-14-37-32.05-48.1-52.86-.28-1.48-.57-3-.82-4.46m-2.31-1.79a139.14,139.14,0,0,1-8.77-24c-13-39,1.49-74.34,21-101.08a241.31,241.31,0,0,1-4.42,24c-9.8,37.82-12.31,70.91-7.76,101.11m325.17-69.3c-2.89-4.23-5.94-8.4-9-12.47.15-13.8-.47-25.7-.91-34.23l-.13-2.34c-1.87-36.18-30.71-48.63-64.11-63-6.2-2.68-12.62-5.44-19-8.43,2.73.63,5.45,1.29,8.15,2,19.14,5.29,45.76,16.32,63.92,38.81,10.68,13.23,17.89,30.11,21.34,49.12.23,9.06.24,19.4-.31,30.55M366.36,254.54c-4.65,3.93-9,7.64-13.22,11.34-10.6,9.35-21.44,18.88-33,27.41a158.7,158.7,0,0,1-20.51,5.47c-2.13.42-4.27.77-6.41,1.13,1.9-1,3.73-1.94,5.42-2.9,17.86-10.12,33.41-23.84,48.45-37.11,3.88-3.42,8-6.91,12.24-10.5C374,237,390.06,223.32,401.37,207.92a161.9,161.9,0,0,1-10.68,25.21c-7.92,7.51-16.32,14.62-24.33,21.41m22.49-18c-13.27,23.4-33.66,43.55-64.62,55.21,10.36-7.89,20.14-16.49,29.72-24.95,4.19-3.68,8.57-7.39,13.21-11.32,7.13-6,14.56-12.33,21.69-18.94m-194,66.73a126.55,126.55,0,0,1-17.42-15A188.77,188.77,0,0,0,201,296.66c12.37,8.21,25.58,13.28,38.69,14.68a76.44,76.44,0,0,0,8.09.43c15.3,0,29.49-4.48,40.85-9.69q5.59-.81,11.21-1.9a163.47,163.47,0,0,0,16.57-4.25c-4.94,3.48-10,6.78-15.26,9.76-2.27,1.28-4.74,2.59-7.36,3.88-34,5.32-68,3.09-99-6.3M288.57,312c-13.85,6.07-31.34,10.89-49.82,8.92-13.35-1.42-26.79-6.52-39.48-14.66a219.48,219.48,0,0,0,58.39,7.85A235.51,235.51,0,0,0,288.57,312m7.59-295.1A147.43,147.43,0,0,1,336,37.42c23.05,16.62,43.26,40,61.78,71.46A249,249,0,0,0,412,129.35c.31.41.63.84.94,1.27-.06,4.63-.21,9.47-.48,14.47-3.22-4.75-6.68-9.44-10-14a227.73,227.73,0,0,1-13.16-19c-17.37-29.51-36.33-51.44-58-67-26.16-18.85-56-27.64-83.92-24.77C213.84,23.77,185.56,42.61,154.68,65c-8.76,6.37-18.7,13.59-25.25,23.44s-9.27,21.26-11.91,34.07c-3.5,16.92-6.45,33.48-4.25,50,2.34,17.49,10.21,33.42,19.49,50.94,11.59,21.9,23.37,43,39.08,60.66-1.7-.81-3.39-1.6-5.06-2.47q-7.47-3.87-14.35-8.34c-10-14.42-18.71-30.17-27.28-46.35-9.89-18.68-18.28-35.65-20.75-54.18-2.34-17.49.81-35.13,4.53-53.16,2.81-13.6,5.69-25.7,12.58-36.05s17.44-18,26.75-24.8C164.36,47.11,179.8,36.34,195.52,28a188.31,188.31,0,0,1,24.55-4.34,282.64,282.64,0,0,1,58.1-8.24c6,.43,12,.93,18,1.55m-162.31,206c-9.22-17.42-17-33.24-19.35-50.53-2.18-16.32.76-32.77,4.23-49.59,2.62-12.69,5.31-24,11.73-33.63S146.73,72.35,155.41,66c30.73-22.32,58.86-41.07,92-44.49A102.48,102.48,0,0,1,257.83,21c24.55,0,50,8.72,72.68,25.08,21.51,15.49,40.35,37.3,57.63,66.66,3.51,6,8.24,12.34,13.23,19.08,3.67,5,7.47,10.09,10.93,15.28-.31,5.21-.77,10.58-1.39,16-4.31-10.07-11.83-20.27-18.89-29.8a213.23,213.23,0,0,1-12.17-17.55C363.71,88.39,346.08,68,326,53.51,301.6,36,273.84,27.75,247.8,30.45,216.62,33.66,190.34,51.17,161.66,72c-8.16,5.93-17.41,12.65-23.54,21.86S129.46,113.7,127,125.64c-3.25,15.74-6,31.15-3.94,46.53,2.17,16.3,9.49,31.12,18.12,47.41,11.22,21.19,22.58,41.6,38.15,58.45a120.77,120.77,0,0,0,18.3,16.19,186.56,186.56,0,0,1-23-8.71c-16.6-18-28.77-39.88-40.81-62.59m269.68-22c-11.1,17.53-29.26,32.9-45.64,46.77-4.25,3.6-8.39,7.1-12.28,10.53-14.95,13.2-30.42,26.84-48.08,36.85a128.05,128.05,0,0,1-11.79,5.9,209.72,209.72,0,0,1-81.39-4.87,116.3,116.3,0,0,1-23.42-19.57c-15.38-16.66-26.67-36.94-37.82-58-8.52-16.09-15.75-30.72-17.88-46.67-2-15,.7-30.25,3.91-45.8,2.42-11.71,4.9-22.13,10.8-31s15-15.49,23-21.31c28.42-20.65,54.43-38,85.08-41.16a92.36,92.36,0,0,1,9.57-.48c22.64,0,46.13,8,67.08,23.15C344.55,69.61,362,89.77,378,116.93a213.32,213.32,0,0,0,12.3,17.74c7.88,10.64,16.35,22.13,20.07,33.14a227.25,227.25,0,0,1-6.8,33.13m7.8-29.72c1.47,6,1.35,11.84-1.36,17.25l0,.08a73.44,73.44,0,0,1-3.51,7.41,232,232,0,0,0,4.9-24.74M280.7,303.05c-11.83,4.53-25.92,7.69-40.74,6.11a82,82,0,0,1-31.48-10.52,207.41,207.41,0,0,0,48.62,5.73,218.18,218.18,0,0,0,23.6-1.32m123.52-99.19A80.5,80.5,0,0,0,412,189.4c3.66-7.37,3-15.29.09-23.36.72-5.76,1.22-11.39,1.58-16.88a97.22,97.22,0,0,1,7.94,14.55,241.86,241.86,0,0,1-9.52,45.61,162.63,162.63,0,0,1-18,20.51,169.87,169.87,0,0,0,10.14-26m9.53-56.77c.3-5,.48-9.9.55-14.56,3,4.07,6,8.24,8.86,12.44-.29,5.27-.72,10.7-1.32,16.24a109.83,109.83,0,0,0-8.09-14.12M329.46,23.57c6.44,3,12.91,5.81,19.16,8.5C381.57,46.3,410,58.58,411.86,93.86L412,96.2c.42,8.11,1,19.28.92,32.23-5.3-7.16-10.3-13.91-14-20.22-18.62-31.63-39-55.13-62.15-71.86A150.89,150.89,0,0,0,302,17.55c6.57.77,13.11,1.75,19.61,3a70.33,70.33,0,0,1,7.86,3M262.84,12.29c-5.11-.32-10.41-.75-15.86-1.19a107.65,107.65,0,0,1,11.09-.56,118.52,118.52,0,0,1,27.12,3.3c-7.49-.6-14.95-1.09-22.35-1.55m-20.41.5c7.09.59,13.78,1.15,20.29,1.55l3.61.24A287.74,287.74,0,0,0,219.8,22.2a189.81,189.81,0,0,0-19.18,3.13A140.66,140.66,0,0,1,238,12.43l4.46.36M195.49,26.47C174.1,31.65,155,40.33,141,51.52a229.37,229.37,0,0,0-27.61,29.15c.83-5.52,1.72-11.12,2.79-16.6a251.87,251.87,0,0,1,18.71-18.44C155,29.51,185.31,18.25,218.19,14.7c.19,0,4.89-1.31,12.5-2.86l2.45.2a150.31,150.31,0,0,0-37.65,14.43M151.7,274.59a199.32,199.32,0,0,0,13.13,16.84c-1.15-.56-2.31-1.1-3.44-1.68A169.75,169.75,0,0,1,110.56,250a162.22,162.22,0,0,1-8.35-26.87,151.85,151.85,0,0,0,49.49,51.46m2.86,1.76c3.74,2.32,7.57,4.55,11.56,6.61,2.66,1.38,5.38,2.63,8.1,3.87a131.71,131.71,0,0,0,16.9,15.25,198,198,0,0,1-23.25-9.16,191.81,191.81,0,0,1-13.31-16.57m40.93,28.92c13.74,9.46,28.48,15.34,43.13,16.91a81.66,81.66,0,0,0,8.65.45c17.14,0,33-5.24,45.39-11.15,3.55-.53,7.1-1.13,10.65-1.83a169.58,169.58,0,0,0,17.88-4.6,193.6,193.6,0,0,1-16.65,10.68c-15.91,9-40.45,19.17-66.93,16.36-23.29-2.49-46.86-15.21-66.68-35.86a200.17,200.17,0,0,0,24.56,9M303,308c-1.67.32-3.34.58-5,.88,1.31-.69,2.63-1.39,3.83-2.07a191.7,191.7,0,0,0,18.34-12,126.64,126.64,0,0,0,41.66-23.09l-1.55,1.34c-11.13,9.83-22.53,19.85-34.66,28.84A168.41,168.41,0,0,1,303,308M361.11,274c4.49-4,9.2-7.94,14.18-12.16,7.33-6.2,14.95-12.66,22.31-19.43-14,24.39-35.4,45.39-67.57,57.72,10.81-8.29,21.05-17.29,31.08-26.13m13.33-13.17c-3.39,2.88-6.62,5.62-9.77,8.35a127.73,127.73,0,0,0,27.57-35.87,183.15,183.15,0,0,0,18.52-20.2,171.09,171.09,0,0,1-11.07,25.54c-8.25,7.77-16.94,15.15-25.25,22.18m40.89-56.34c.36-1.23.74-2.46,1.07-3.69-.31,1.17-.63,2.34-.95,3.51l-.12.18m1.28-4.45a251.15,251.15,0,0,0,6.31-32.88c.16.45.33.9.48,1.35a320.36,320.36,0,0,1-6.79,31.53m8-26.6c1.11,5.89.72,11.61-2,17l0,0a76.73,76.73,0,0,1-3.24,7c2-8,3.8-16,5.22-24m-1.41-9c.68-5.82,1.17-11.53,1.52-17.07.27.41.55.83.81,1.24-.34,5.79-.91,11.57-1.75,17.34-.19-.51-.38-1-.58-1.51M285.8,5.82c17.25,0,34.89,2.21,49,8.82,6.87,3.22,13.76,6.2,20.43,9.08C390.35,38.87,420.67,52,422.62,89.53l.13,2.49c.14,2.73.3,5.82.45,9.15-4-15-10.51-28.36-19.34-39.3-18.5-22.92-45.54-34.13-65-39.5a216.35,216.35,0,0,0-22.21-4.81A124.45,124.45,0,0,0,291.43,14,118,118,0,0,0,246.8,9.79c-2,.21-4,.49-6,.8l-2.45-.2A276.19,276.19,0,0,1,285.8,5.82M143.26,19.18l.08,0c15.86-6.82,34.53-8.87,53.7-8.87,9.12,0,18.33.49,27.42,1.12-4.14.94-6.57,1.59-6.58,1.6-33.07,3.56-63.73,15-84.15,31.3-5.27,4.68-11,10.22-16.91,16.48,4.12-19.29,10.93-36.43,26.44-41.6M78.85,190.05c-16.52-49.57,8.58-93.48,34.64-123-1,5.68-1.9,11.42-2.74,17C90.28,111.32,74.42,147.9,88,188.56a140.81,140.81,0,0,0,11,28.56,167.56,167.56,0,0,0,7.47,27.81,149.73,149.73,0,0,1-27.54-54.88m303.36,97.73c-11.64,15.23-27.6,26.35-44.32,37.34-12.59,8.29-24.08,15.37-37.31,18s-27.2.45-39.53-1.51c-43.71-6.92-82.34-14.64-112.47-39.14-15-12.21-27.14-28.41-35.76-47.29a172.7,172.7,0,0,0,47.77,36.09c2.31,1.19,4.68,2.26,7,3.36l.37.42c20.42,22.11,45.1,35.73,69.47,38.32a85.67,85.67,0,0,0,9.28.5c23.21,0,44.23-9,58.44-17a203.46,203.46,0,0,0,19.92-13c38-12.86,61.8-37.18,76.66-65.3q2.57-2.45,5-4.94c-6.4,20.57-12.92,38.9-24.6,54.17m52.57-95.54c-5,12.64-13.72,24.35-23.93,35.28,2.58-8.45,5-16.85,7.29-25.23A80.21,80.21,0,0,0,423.81,191c3.26-6.54,3.29-13.52,1.37-20.66q1.53-9.31,2.25-18.66c8.48,14,13.57,28.14,7.38,40.52Z"/><path class="cls-1" d="M360.61,123.62C347,100.4,332,83.14,315,70.86,294.37,56,270.91,49.1,248.86,51.34c-26.38,2.72-48.64,17.55-72.93,35.2C169,91.56,161.2,97.25,156,105s-7.31,16.77-9.4,26.87c-2.75,13.32-5.07,26.36-3.34,39.38,1.84,13.79,8,26.33,15.34,40.12,9.51,18,19.14,35.26,32.31,49.52,15,16.25,33.16,26.26,51.09,28.17a63.17,63.17,0,0,0,6.83.36c17.07,0,32.52-6.58,43-12.5,15.11-8.55,28.29-20.19,41.05-31.43,3.28-2.9,6.72-5.81,10.37-8.91C360.44,222,380,205.52,387.82,185.82c7.3-14.65-5.55-32-16.88-47.3a180.75,180.75,0,0,1-10.33-14.9M386.5,185.2l0,.05c-7.73,19.38-27.1,35.78-44.19,50.24-3.65,3.09-7.11,6-10.4,8.92-12.69,11.2-25.82,22.78-40.79,31.27-11.64,6.59-29.55,14-48.93,11.95-17.57-1.87-35.39-11.71-50.17-27.72-13.05-14.12-22.62-31.33-32.09-49.2-7.23-13.66-13.37-26.08-15.18-39.64-1.71-12.78.6-25.69,3.32-38.89,2-10,4.16-18.8,9.19-26.35S170,92.67,176.79,87.72C200.91,70.2,223,55.47,249,52.8a76,76,0,0,1,8.14-.42c19.24,0,39.19,6.84,57,19.67,16.87,12.16,31.67,29.27,45.23,52.31a179.37,179.37,0,0,0,10.41,15c11.09,15,23.66,32,16.73,45.81"/><path class="cls-1" d="M349.58,128.11C337.33,107.3,324,91.83,308.68,80.82c-18.46-13.31-39.49-19.53-59.21-17.49-23.62,2.44-43.58,15.74-65.36,31.56-6.18,4.5-13.2,9.6-17.82,16.54s-6.54,15-8.4,24c-2.47,11.95-4.56,23.63-3,35.29,1.65,12.34,7.2,23.58,13.75,35.94,8.53,16.1,17.16,31.62,29,44.4,13.44,14.56,29.68,23.51,45.72,25.22a57.55,57.55,0,0,0,6.11.33c15.28,0,29.11-5.9,38.46-11.2,13.55-7.67,25.37-18.1,36.81-28.19,3-2.6,6-5.22,9.32-8,15.43-13.07,32.92-27.87,40-45.52,6.5-13-5-28.55-15.13-42.23-3.51-4.75-6.82-9.22-9.28-13.4m23.62,55.26v0c-6.95,17.44-24.36,32.18-39.73,45.18-3.27,2.78-6.37,5.4-9.33,8-11.4,10.06-23.19,20.46-36.66,28.1-10.47,5.93-26.62,12.63-44,10.76-15.84-1.69-31.88-10.55-45.18-24.95-11.74-12.71-20.34-28.17-28.84-44.22-6.5-12.28-12-23.45-13.66-35.65-1.53-11.52.54-23.13,3-35,1.85-8.95,3.75-16.92,8.28-23.73s11.48-11.86,17.6-16.32c21.68-15.74,41.53-29,64.94-31.39a71.48,71.48,0,0,1,7.32-.37c17.32,0,35.28,6.15,51.29,17.69,15.17,10.94,28.47,26.33,40.66,47,2.48,4.21,5.81,8.7,9.33,13.46,10,13.5,21.33,28.79,15,41.35"/><path class="cls-1" d="M369.75,120c-14.84-25.23-31.06-44-49.57-57.32-22.39-16.14-47.9-23.67-71.81-21.2-28.65,3-52.83,19.06-79.23,38.24-7.5,5.45-16,11.63-21.62,20.07s-7.93,18.19-10.2,29.16c-3,14.48-5.51,28.65-3.63,42.78,2,15,8.73,28.59,16.67,43.58,10.33,19.51,20.8,38.31,35.1,53.8,16.31,17.66,36,28.53,55.48,30.6a71.46,71.46,0,0,0,7.41.39c18.53,0,35.31-7.14,46.65-13.57,16.42-9.3,30.75-22,44.6-34.17,3.57-3.15,7.32-6.32,11.28-9.68,18.7-15.83,39.9-33.77,48.44-55.16,7.92-15.88-6-34.7-18.34-51.31A196.28,196.28,0,0,1,369.75,120m28.33,66.93,0,.05C389.65,208,368.59,225.86,350,241.59c-4,3.36-7.73,6.53-11.31,9.69-13.8,12.18-28.07,24.77-44.36,34-12.67,7.18-32.17,15.29-53.25,13-19.13-2-38.53-12.75-54.61-30.16-14.2-15.37-24.61-34.08-34.9-53.51-7.87-14.87-14.55-28.39-16.52-43.12-1.86-13.92.65-28,3.61-42.32,2.24-10.83,4.54-20.46,10-28.68S162.54,86.17,170,80.78c26.23-19.06,50.25-35.07,78.56-38a84.24,84.24,0,0,1,8.86-.46c20.93,0,42.64,7.44,62,21.4,18.36,13.23,34.45,31.85,49.2,56.91A196.44,196.44,0,0,0,379.88,137c12.08,16.3,25.77,34.78,18.2,49.91"/><path class="cls-1" d="M188.76,232.3H77.32L54.58,295.23H13.64l97-269.13H155.4l97,269.13H211.5ZM175.5,194.78,133,77.65,91,194.78Z"/></svg>